<svg xmlns="http://www.w3.org/2000/svg" version="1.1" xmlns:xlink="http://www.w3.org/1999/xlink" xmlns:svgjs="http://svgjs.com/svgjs" width="416.000000pt" height="416.000000pt"><svg version="1.0" xmlns="http://www.w3.org/2000/svg" width="416.000000pt" height="416.000000pt" viewBox="0 0 416.000000 416.000000" preserveAspectRatio="xMidYMid meet">

<g transform="translate(0.000000,416.000000) scale(0.100000,-0.100000)" fill="#000000" stroke="none">
<path d="M1934 3621 c-61 -16 -121 -34 -132 -40 -11 -6 -50 -11 -86 -11 -63 0
-146 -26 -162 -51 -3 -5 -18 -9 -35 -9 -18 0 -33 -7 -41 -20 -8 -13 -24 -20
-44 -20 -51 0 -120 -29 -167 -71 -25 -21 -54 -39 -65 -39 -10 0 -31 -9 -45
-20 -14 -11 -33 -20 -42 -20 -21 0 -58 -19 -67 -35 -4 -7 -29 -16 -55 -20 -27
-4 -71 -18 -100 -31 -60 -29 -149 -105 -159 -137 -4 -12 -26 -40 -50 -63 -25
-22 -44 -50 -44 -61 0 -12 -15 -32 -35 -47 -41 -32 -75 -93 -75 -135 0 -20 -7
-34 -21 -41 -26 -14 -49 -68 -49 -115 0 -30 -3 -35 -22 -35 -13 0 -38 -9 -56
-20 -24 -15 -32 -27 -32 -49 0 -22 -12 -43 -45 -76 -56 -58 -127 -165 -151
-230 -57 -152 20 -304 169 -335 l54 -11 6 -49 c3 -27 2 -64 -4 -82 -18 -65
-11 -161 16 -212 17 -32 23 -55 19 -75 -4 -18 2 -46 15 -76 12 -26 21 -64 21
-85 0 -21 8 -48 18 -61 11 -13 22 -37 26 -53 10 -39 38 -79 70 -95 14 -8 30
-29 37 -48 16 -50 54 -90 106 -109 25 -10 56 -28 69 -41 12 -12 35 -25 51 -29
15 -4 39 -15 52 -26 13 -10 29 -18 35 -18 6 0 26 -16 45 -35 33 -34 94 -59
129 -53 10 1 33 -9 52 -24 44 -34 82 -48 126 -48 26 0 41 -7 59 -28 57 -68
225 -110 314 -79 41 15 47 15 82 -4 21 -10 50 -19 63 -19 14 0 55 -10 90 -21
76 -25 131 -21 200 16 l44 23 42 -20 c85 -42 171 -36 250 17 44 29 54 32 82
24 68 -19 170 -6 209 27 12 11 24 11 54 3 64 -18 137 3 191 55 35 34 50 42 70
38 16 -3 36 3 54 17 16 11 41 21 55 21 33 0 82 47 90 86 4 16 8 34 10 40 2 6
22 14 45 18 56 9 110 61 110 105 0 27 4 31 41 41 40 11 89 52 89 74 0 6 14 19
30 28 46 26 71 75 68 130 -3 40 0 49 19 59 12 7 30 28 39 47 13 29 14 42 5 72
-10 33 -8 42 15 84 21 37 25 56 21 87 -3 25 0 50 9 67 18 35 18 90 -1 125 -12
23 -12 36 -3 73 7 24 18 44 25 44 28 0 92 41 122 77 116 141 98 300 -51 438
-40 36 -68 71 -68 82 0 25 -25 47 -71 62 -35 11 -38 15 -79 102 -5 8 -6 27 -3
41 9 45 -15 104 -57 142 -22 20 -40 44 -40 54 0 33 -43 86 -86 106 -22 10 -48
32 -57 48 -9 16 -29 36 -45 45 -16 9 -34 31 -40 47 -27 74 -134 156 -205 156
-18 0 -44 13 -71 35 -47 38 -103 65 -138 65 -13 0 -43 14 -67 30 -24 17 -52
30 -61 30 -9 0 -31 17 -48 39 -38 47 -86 71 -145 71 -24 0 -66 10 -92 21 -39
17 -61 20 -113 16 -50 -4 -74 -1 -106 14 -59 27 -149 24 -282 -10z m271 -41
c38 -16 60 -19 109 -14 51 5 70 3 108 -15 26 -12 67 -21 93 -21 60 0 99 -21
130 -70 20 -31 31 -40 53 -40 18 0 38 -11 57 -30 22 -23 38 -30 67 -30 47 0
109 -30 145 -70 21 -24 35 -30 65 -30 80 0 166 -64 189 -139 8 -28 20 -43 40
-52 16 -6 38 -27 50 -45 12 -20 38 -41 64 -53 48 -21 65 -45 65 -89 0 -24 7
-34 34 -50 47 -28 70 -74 62 -125 -4 -21 -3 -44 2 -51 5 -6 12 -23 16 -38 9
-40 68 -98 100 -98 26 0 35 -13 16 -25 -19 -12 -10 -25 48 -64 109 -74 162
-154 162 -246 0 -85 -34 -151 -102 -202 -44 -32 -53 -29 -67 17 -14 49 -56
100 -82 100 -31 0 -33 -27 -5 -60 47 -57 54 -124 19 -193 -13 -25 -12 -30 7
-54 26 -34 26 -87 -2 -125 -17 -25 -19 -34 -10 -49 18 -29 14 -56 -14 -99 -24
-35 -25 -42 -14 -75 16 -49 6 -80 -30 -95 -29 -12 -30 -14 -30 -80 0 -62 -2
-71 -26 -89 -15 -12 -35 -21 -45 -21 -13 0 -19 -7 -19 -23 0 -41 -23 -59 -78
-65 -60 -5 -79 -21 -63 -51 6 -11 11 -25 11 -31 0 -22 -49 -60 -77 -60 -15 0
-43 -9 -60 -20 -28 -17 -33 -25 -33 -60 0 -47 -31 -75 -73 -65 -20 5 -28 2
-37 -15 -10 -19 -17 -21 -55 -15 -41 6 -45 4 -59 -24 -35 -67 -103 -92 -190
-71 -52 12 -53 12 -80 -15 -26 -26 -31 -27 -104 -22 -42 2 -86 8 -97 11 -15 5
-33 -3 -65 -28 -80 -61 -141 -65 -242 -16 l-47 23 -43 -28 c-53 -35 -122 -44
-181 -22 -23 8 -61 17 -83 20 -23 3 -59 16 -79 30 l-37 25 -40 -20 c-82 -43
-256 0 -294 73 -14 28 -19 31 -49 26 -50 -8 -106 11 -141 48 -28 30 -36 33
-71 28 -50 -7 -97 16 -118 57 -11 20 -23 30 -39 30 -13 0 -29 7 -36 15 -7 8
-21 15 -30 15 -32 0 -50 12 -65 40 -11 21 -23 28 -56 33 -54 7 -87 40 -97 97
-6 38 -11 45 -39 52 -39 10 -63 42 -63 82 0 21 -8 37 -26 51 -25 20 -26 23
-14 56 12 33 11 37 -14 62 -27 27 -33 64 -17 96 7 12 2 28 -19 60 -38 56 -47
118 -27 190 12 44 13 66 5 102 -15 65 -3 127 38 195 36 60 38 84 5 84 -23 0
-77 -77 -92 -132 -9 -34 -13 -38 -41 -38 -38 0 -109 40 -131 73 -28 44 -38
101 -26 155 19 89 122 240 196 288 46 29 53 47 26 63 -25 13 -13 21 44 29 l48
7 5 65 c5 60 7 66 37 85 28 18 32 25 33 65 0 54 27 103 69 125 19 9 33 26 36
43 8 37 18 54 38 64 9 4 25 12 34 17 10 4 19 21 20 37 4 60 147 156 237 159
40 1 52 6 68 28 12 17 29 27 45 27 14 0 36 9 50 20 14 11 38 20 54 20 19 0 34
9 48 29 30 42 114 81 174 81 40 0 50 3 54 20 4 13 14 20 29 20 14 0 43 12 66
28 36 23 52 27 119 28 45 0 84 6 93 13 22 19 235 70 293 71 30 0 71 -8 98 -20z"></path>
<path d="M1629 2341 c-71 -22 -99 -61 -99 -136 0 -55 27 -87 88 -106 116 -34
216 67 166 167 -31 62 -95 93 -155 75z m110 -50 c13 -24 -8 -55 -31 -46 -22 9
-31 35 -17 51 16 19 36 17 48 -5z"></path>
<path d="M2419 2311 c-33 -32 -39 -45 -39 -79 0 -58 15 -89 52 -112 57 -35
148 -21 193 30 26 28 26 107 1 145 -22 33 -72 55 -127 55 -35 0 -48 -6 -80
-39z m166 -31 c0 -30 -26 -38 -48 -15 -23 22 -10 47 22 43 20 -2 26 -8 26 -28z"></path>
<path d="M3039 2176 c-31 -15 -31 -40 -1 -44 25 -4 52 13 52 33 0 19 -24 25
-51 11z"></path>
<path d="M997 2173 c-4 -3 -7 -14 -7 -23 0 -13 11 -19 42 -23 49 -7 58 -3 58
22 0 25 -74 44 -93 24z"></path>
<path d="M962 2064 c-37 -15 -46 -54 -12 -54 32 0 70 22 70 41 0 24 -21 29
-58 13z"></path>
<path d="M1983 2070 c-80 -17 -114 -56 -99 -115 10 -38 72 -102 112 -115 50
-17 47 -53 -6 -80 -66 -34 -160 -23 -160 19 0 10 -7 25 -16 32 -14 11 -18 10
-30 -6 -30 -41 15 -99 90 -116 41 -9 55 -17 64 -38 40 -91 219 -88 257 4 13
30 20 35 48 35 38 0 91 30 107 60 16 30 5 70 -20 70 -11 0 -20 -3 -21 -7 -5
-56 -26 -73 -89 -73 -34 0 -58 8 -94 30 -26 17 -46 35 -44 42 2 6 27 19 56 30
88 33 136 98 116 157 -19 55 -166 93 -271 71z m167 -387 c0 -21 -43 -43 -85
-43 -43 0 -85 22 -85 44 0 8 13 19 30 26 16 7 34 18 40 25 9 11 20 8 55 -13
25 -15 45 -32 45 -39z"></path>
<path d="M3107 2053 c-4 -3 -7 -14 -7 -24 0 -12 12 -18 45 -23 48 -8 65 -3 65
19 0 20 -88 44 -103 28z"></path>
</g>
</svg><style>@media (prefers-color-scheme: light) { :root { filter: none; } }
</style></svg>